<?xml version="1.0" encoding="UTF-8" standalone="no"?>
<!DOCTYPE svg PUBLIC "-//W3C//DTD SVG 1.1//EN"
 "http://www.w3.org/Graphics/SVG/1.1/DTD/svg11.dtd">
<!-- Generated by graphviz version 2.43.0 (0)
 -->
<!-- Title: snakemake_dag Pages: 1 -->
<svg width="524pt" height="348pt"
 viewBox="0.00 0.00 524.00 348.00" xmlns="http://www.w3.org/2000/svg" xmlns:xlink="http://www.w3.org/1999/xlink">
<g id="graph0" class="graph" transform="scale(1 1) rotate(0) translate(4 344)">
<title>snakemake_dag</title>
<polygon fill="white" stroke="transparent" points="-4,4 -4,-344 520,-344 520,4 -4,4"/>
<!-- 0 -->
<g id="node1" class="node">
<title>0</title>
<path fill="none" stroke="#d6d856" stroke-width="2" d="M119,-36C119,-36 41,-36 41,-36 35,-36 29,-30 29,-24 29,-24 29,-12 29,-12 29,-6 35,0 41,0 41,0 119,0 119,0 125,0 131,-6 131,-12 131,-12 131,-24 131,-24 131,-30 125,-36 119,-36"/>
<text text-anchor="middle" x="80" y="-15.5" font-family="sans" font-size="10.00">forward_simulate</text>
</g>
<!-- 1 -->
<g id="node2" class="node">
<title>1</title>
<path fill="none" stroke="#56d8d8" stroke-width="2" d="M141,-108C141,-108 19,-108 19,-108 13,-108 7,-102 7,-96 7,-96 7,-84 7,-84 7,-78 13,-72 19,-72 19,-72 141,-72 141,-72 147,-72 153,-78 153,-84 153,-84 153,-96 153,-96 153,-102 147,-108 141,-108"/>
<text text-anchor="middle" x="80" y="-87.5" font-family="sans" font-size="10.00">sample_parameter_values</text>
</g>
<!-- 1&#45;&gt;0 -->
<g id="edge1" class="edge">
<title>1&#45;&gt;0</title>
<path fill="none" stroke="grey" stroke-width="2" d="M80,-71.7C80,-63.98 80,-54.71 80,-46.11"/>
<polygon fill="grey" stroke="grey" stroke-width="2" points="83.5,-46.1 80,-36.1 76.5,-46.1 83.5,-46.1"/>
</g>
<!-- 2 -->
<g id="node3" class="node">
<title>2</title>
<path fill="none" stroke="#56d89a" stroke-width="2" d="M148,-180C148,-180 12,-180 12,-180 6,-180 0,-174 0,-168 0,-168 0,-156 0,-156 0,-150 6,-144 12,-144 12,-144 148,-144 148,-144 154,-144 160,-150 160,-156 160,-156 160,-168 160,-168 160,-174 154,-180 148,-180"/>
<text text-anchor="middle" x="80" y="-159.5" font-family="sans" font-size="10.00">estimate_parameter_weights</text>
</g>
<!-- 2&#45;&gt;1 -->
<g id="edge2" class="edge">
<title>2&#45;&gt;1</title>
<path fill="none" stroke="grey" stroke-width="2" d="M80,-143.7C80,-135.98 80,-126.71 80,-118.11"/>
<polygon fill="grey" stroke="grey" stroke-width="2" points="83.5,-118.1 80,-108.1 76.5,-118.1 83.5,-118.1"/>
</g>
<!-- 4 -->
<g id="node4" class="node">
<title>4</title>
<path fill="none" stroke="#59d856" stroke-width="2" d="M148.5,-268C148.5,-268 37.5,-268 37.5,-268 31.5,-268 25.5,-262 25.5,-256 25.5,-256 25.5,-228 25.5,-228 25.5,-222 31.5,-216 37.5,-216 37.5,-216 148.5,-216 148.5,-216 154.5,-216 160.5,-222 160.5,-228 160.5,-228 160.5,-256 160.5,-256 160.5,-262 154.5,-268 148.5,-268"/>
<text text-anchor="middle" x="93" y="-256" font-family="sans" font-size="10.00">make_prevalence_maps</text>
<text text-anchor="middle" x="93" y="-245" font-family="sans" font-size="10.00">FIRST_MDA: 2008</text>
<text text-anchor="middle" x="93" y="-234" font-family="sans" font-size="10.00">GROUP: 3</text>
<text text-anchor="middle" x="93" y="-223" font-family="sans" font-size="10.00">LAST_MDA: 2019</text>
</g>
<!-- 4&#45;&gt;2 -->
<g id="edge3" class="edge">
<title>4&#45;&gt;2</title>
<path fill="none" stroke="grey" stroke-width="2" d="M88.82,-215.89C87.46,-207.75 85.95,-198.68 84.56,-190.38"/>
<polygon fill="grey" stroke="grey" stroke-width="2" points="88,-189.7 82.9,-180.41 81.09,-190.85 88,-189.7"/>
</g>
<!-- 5 -->
<g id="node5" class="node">
<title>5</title>
<path fill="none" stroke="#569ad8" stroke-width="2" d="M278,-340C278,-340 238,-340 238,-340 232,-340 226,-334 226,-328 226,-328 226,-316 226,-316 226,-310 232,-304 238,-304 238,-304 278,-304 278,-304 284,-304 290,-310 290,-316 290,-316 290,-328 290,-328 290,-334 284,-340 278,-340"/>
<text text-anchor="middle" x="258" y="-319.5" font-family="sans" font-size="10.00">group_ius</text>
</g>
<!-- 5&#45;&gt;4 -->
<g id="edge4" class="edge">
<title>5&#45;&gt;4</title>
<path fill="none" stroke="grey" stroke-width="2" d="M225.79,-305.78C205.67,-296.26 179.09,-283.7 155,-272.31"/>
<polygon fill="grey" stroke="grey" stroke-width="2" points="156.44,-269.12 145.9,-268.01 153.45,-275.45 156.44,-269.12"/>
</g>
<!-- 11 -->
<g id="node9" class="node">
<title>11</title>
<path fill="none" stroke="#59d856" stroke-width="2" d="M313.5,-268C313.5,-268 202.5,-268 202.5,-268 196.5,-268 190.5,-262 190.5,-256 190.5,-256 190.5,-228 190.5,-228 190.5,-222 196.5,-216 202.5,-216 202.5,-216 313.5,-216 313.5,-216 319.5,-216 325.5,-222 325.5,-228 325.5,-228 325.5,-256 325.5,-256 325.5,-262 319.5,-268 313.5,-268"/>
<text text-anchor="middle" x="258" y="-256" font-family="sans" font-size="10.00">make_prevalence_maps</text>
<text text-anchor="middle" x="258" y="-245" font-family="sans" font-size="10.00">FIRST_MDA: 2008</text>
<text text-anchor="middle" x="258" y="-234" font-family="sans" font-size="10.00">GROUP: 2</text>
<text text-anchor="middle" x="258" y="-223" font-family="sans" font-size="10.00">LAST_MDA: 2017</text>
</g>
<!-- 5&#45;&gt;11 -->
<g id="edge8" class="edge">
<title>5&#45;&gt;11</title>
<path fill="none" stroke="grey" stroke-width="2" d="M258,-303.69C258,-296.21 258,-287.16 258,-278.36"/>
<polygon fill="grey" stroke="grey" stroke-width="2" points="261.5,-278.26 258,-268.26 254.5,-278.26 261.5,-278.26"/>
</g>
<!-- 16 -->
<g id="node13" class="node">
<title>16</title>
<path fill="none" stroke="#59d856" stroke-width="2" d="M478.5,-268C478.5,-268 367.5,-268 367.5,-268 361.5,-268 355.5,-262 355.5,-256 355.5,-256 355.5,-228 355.5,-228 355.5,-222 361.5,-216 367.5,-216 367.5,-216 478.5,-216 478.5,-216 484.5,-216 490.5,-222 490.5,-228 490.5,-228 490.5,-256 490.5,-256 490.5,-262 484.5,-268 478.5,-268"/>
<text text-anchor="middle" x="423" y="-256" font-family="sans" font-size="10.00">make_prevalence_maps</text>
<text text-anchor="middle" x="423" y="-245" font-family="sans" font-size="10.00">FIRST_MDA: 2015</text>
<text text-anchor="middle" x="423" y="-234" font-family="sans" font-size="10.00">GROUP: 5</text>
<text text-anchor="middle" x="423" y="-223" font-family="sans" font-size="10.00">LAST_MDA: 2019</text>
</g>
<!-- 5&#45;&gt;16 -->
<g id="edge12" class="edge">
<title>5&#45;&gt;16</title>
<path fill="none" stroke="grey" stroke-width="2" d="M290.21,-305.78C310.33,-296.26 336.91,-283.7 361,-272.31"/>
<polygon fill="grey" stroke="grey" stroke-width="2" points="362.55,-275.45 370.1,-268.01 359.56,-269.12 362.55,-275.45"/>
</g>
<!-- 7 -->
<g id="node6" class="node">
<title>7</title>
<path fill="none" stroke="#d6d856" stroke-width="2" d="M297,-36C297,-36 219,-36 219,-36 213,-36 207,-30 207,-24 207,-24 207,-12 207,-12 207,-6 213,0 219,0 219,0 297,0 297,0 303,0 309,-6 309,-12 309,-12 309,-24 309,-24 309,-30 303,-36 297,-36"/>
<text text-anchor="middle" x="258" y="-15.5" font-family="sans" font-size="10.00">forward_simulate</text>
</g>
<!-- 8 -->
<g id="node7" class="node">
<title>8</title>
<path fill="none" stroke="#56d8d8" stroke-width="2" d="M319,-108C319,-108 197,-108 197,-108 191,-108 185,-102 185,-96 185,-96 185,-84 185,-84 185,-78 191,-72 197,-72 197,-72 319,-72 319,-72 325,-72 331,-78 331,-84 331,-84 331,-96 331,-96 331,-102 325,-108 319,-108"/>
<text text-anchor="middle" x="258" y="-87.5" font-family="sans" font-size="10.00">sample_parameter_values</text>
</g>
<!-- 8&#45;&gt;7 -->
<g id="edge5" class="edge">
<title>8&#45;&gt;7</title>
<path fill="none" stroke="grey" stroke-width="2" d="M258,-71.7C258,-63.98 258,-54.71 258,-46.11"/>
<polygon fill="grey" stroke="grey" stroke-width="2" points="261.5,-46.1 258,-36.1 254.5,-46.1 261.5,-46.1"/>
</g>
<!-- 9 -->
<g id="node8" class="node">
<title>9</title>
<path fill="none" stroke="#56d89a" stroke-width="2" d="M326,-180C326,-180 190,-180 190,-180 184,-180 178,-174 178,-168 178,-168 178,-156 178,-156 178,-150 184,-144 190,-144 190,-144 326,-144 326,-144 332,-144 338,-150 338,-156 338,-156 338,-168 338,-168 338,-174 332,-180 326,-180"/>
<text text-anchor="middle" x="258" y="-159.5" font-family="sans" font-size="10.00">estimate_parameter_weights</text>
</g>
<!-- 9&#45;&gt;8 -->
<g id="edge6" class="edge">
<title>9&#45;&gt;8</title>
<path fill="none" stroke="grey" stroke-width="2" d="M258,-143.7C258,-135.98 258,-126.71 258,-118.11"/>
<polygon fill="grey" stroke="grey" stroke-width="2" points="261.5,-118.1 258,-108.1 254.5,-118.1 261.5,-118.1"/>
</g>
<!-- 11&#45;&gt;9 -->
<g id="edge7" class="edge">
<title>11&#45;&gt;9</title>
<path fill="none" stroke="grey" stroke-width="2" d="M258,-215.89C258,-207.84 258,-198.88 258,-190.66"/>
<polygon fill="grey" stroke="grey" stroke-width="2" points="261.5,-190.41 258,-180.41 254.5,-190.41 261.5,-190.41"/>
</g>
<!-- 12 -->
<g id="node10" class="node">
<title>12</title>
<path fill="none" stroke="#d6d856" stroke-width="2" d="M475,-36C475,-36 397,-36 397,-36 391,-36 385,-30 385,-24 385,-24 385,-12 385,-12 385,-6 391,0 397,0 397,0 475,0 475,0 481,0 487,-6 487,-12 487,-12 487,-24 487,-24 487,-30 481,-36 475,-36"/>
<text text-anchor="middle" x="436" y="-15.5" font-family="sans" font-size="10.00">forward_simulate</text>
</g>
<!-- 13 -->
<g id="node11" class="node">
<title>13</title>
<path fill="none" stroke="#56d8d8" stroke-width="2" d="M497,-108C497,-108 375,-108 375,-108 369,-108 363,-102 363,-96 363,-96 363,-84 363,-84 363,-78 369,-72 375,-72 375,-72 497,-72 497,-72 503,-72 509,-78 509,-84 509,-84 509,-96 509,-96 509,-102 503,-108 497,-108"/>
<text text-anchor="middle" x="436" y="-87.5" font-family="sans" font-size="10.00">sample_parameter_values</text>
</g>
<!-- 13&#45;&gt;12 -->
<g id="edge9" class="edge">
<title>13&#45;&gt;12</title>
<path fill="none" stroke="grey" stroke-width="2" d="M436,-71.7C436,-63.98 436,-54.71 436,-46.11"/>
<polygon fill="grey" stroke="grey" stroke-width="2" points="439.5,-46.1 436,-36.1 432.5,-46.1 439.5,-46.1"/>
</g>
<!-- 14 -->
<g id="node12" class="node">
<title>14</title>
<path fill="none" stroke="#56d89a" stroke-width="2" d="M504,-180C504,-180 368,-180 368,-180 362,-180 356,-174 356,-168 356,-168 356,-156 356,-156 356,-150 362,-144 368,-144 368,-144 504,-144 504,-144 510,-144 516,-150 516,-156 516,-156 516,-168 516,-168 516,-174 510,-180 504,-180"/>
<text text-anchor="middle" x="436" y="-159.5" font-family="sans" font-size="10.00">estimate_parameter_weights</text>
</g>
<!-- 14&#45;&gt;13 -->
<g id="edge10" class="edge">
<title>14&#45;&gt;13</title>
<path fill="none" stroke="grey" stroke-width="2" d="M436,-143.7C436,-135.98 436,-126.71 436,-118.11"/>
<polygon fill="grey" stroke="grey" stroke-width="2" points="439.5,-118.1 436,-108.1 432.5,-118.1 439.5,-118.1"/>
</g>
<!-- 16&#45;&gt;14 -->
<g id="edge11" class="edge">
<title>16&#45;&gt;14</title>
<path fill="none" stroke="grey" stroke-width="2" d="M427.18,-215.89C428.54,-207.75 430.05,-198.68 431.44,-190.38"/>
<polygon fill="grey" stroke="grey" stroke-width="2" points="434.91,-190.85 433.1,-180.41 428,-189.7 434.91,-190.85"/>
</g>
</g>
</svg>
