<?xml version="1.0" encoding="UTF-8" standalone="no"?>
<!DOCTYPE svg PUBLIC "-//W3C//DTD SVG 1.1//EN"
 "http://www.w3.org/Graphics/SVG/1.1/DTD/svg11.dtd">
<!-- Generated by graphviz version 2.43.0 (0)
 -->
<!-- Title: snakemake_dag Pages: 1 -->
<svg width="562pt" height="420pt"
 viewBox="0.00 0.00 562.00 420.00" xmlns="http://www.w3.org/2000/svg" xmlns:xlink="http://www.w3.org/1999/xlink">
<g id="graph0" class="graph" transform="scale(1 1) rotate(0) translate(4 416)">
<title>snakemake_dag</title>
<polygon fill="white" stroke="transparent" points="-4,4 -4,-416 558,-416 558,4 -4,4"/>
<!-- 0 -->
<g id="node1" class="node">
<title>0</title>
<path fill="none" stroke="#d8cb56" stroke-width="2" d="M90,-36C90,-36 12,-36 12,-36 6,-36 0,-30 0,-24 0,-24 0,-12 0,-12 0,-6 6,0 12,0 12,0 90,0 90,0 96,0 102,-6 102,-12 102,-12 102,-24 102,-24 102,-30 96,-36 90,-36"/>
<text text-anchor="middle" x="51" y="-15.5" font-family="sans" font-size="10.00">forward_simulate</text>
</g>
<!-- 1 -->
<g id="node2" class="node">
<title>1</title>
<path fill="none" stroke="#56c9d8" stroke-width="2" stroke-dasharray="5,2" d="M208,-412C208,-412 168,-412 168,-412 162,-412 156,-406 156,-400 156,-400 156,-388 156,-388 156,-382 162,-376 168,-376 168,-376 208,-376 208,-376 214,-376 220,-382 220,-388 220,-388 220,-400 220,-400 220,-406 214,-412 208,-412"/>
<text text-anchor="middle" x="188" y="-391.5" font-family="sans" font-size="10.00">group_ius</text>
</g>
<!-- 8 -->
<g id="node7" class="node">
<title>8</title>
<path fill="none" stroke="#d85656" stroke-width="2" d="M167.5,-340C167.5,-340 56.5,-340 56.5,-340 50.5,-340 44.5,-334 44.5,-328 44.5,-328 44.5,-300 44.5,-300 44.5,-294 50.5,-288 56.5,-288 56.5,-288 167.5,-288 167.5,-288 173.5,-288 179.5,-294 179.5,-300 179.5,-300 179.5,-328 179.5,-328 179.5,-334 173.5,-340 167.5,-340"/>
<text text-anchor="middle" x="112" y="-328" font-family="sans" font-size="10.00">make_prevalence_maps</text>
<text text-anchor="middle" x="112" y="-317" font-family="sans" font-size="10.00">FIRST_MDA: 2008</text>
<text text-anchor="middle" x="112" y="-306" font-family="sans" font-size="10.00">GROUP: 3</text>
<text text-anchor="middle" x="112" y="-295" font-family="sans" font-size="10.00">LAST_MDA: 2019</text>
</g>
<!-- 1&#45;&gt;8 -->
<g id="edge9" class="edge">
<title>1&#45;&gt;8</title>
<path fill="none" stroke="grey" stroke-width="2" d="M171.13,-375.69C163.05,-367.39 153.09,-357.17 143.67,-347.5"/>
<polygon fill="grey" stroke="grey" stroke-width="2" points="146.09,-344.98 136.61,-340.26 141.08,-349.86 146.09,-344.98"/>
</g>
<!-- 13 -->
<g id="node11" class="node">
<title>13</title>
<path fill="none" stroke="#d85656" stroke-width="2" d="M326.5,-340C326.5,-340 215.5,-340 215.5,-340 209.5,-340 203.5,-334 203.5,-328 203.5,-328 203.5,-300 203.5,-300 203.5,-294 209.5,-288 215.5,-288 215.5,-288 326.5,-288 326.5,-288 332.5,-288 338.5,-294 338.5,-300 338.5,-300 338.5,-328 338.5,-328 338.5,-334 332.5,-340 326.5,-340"/>
<text text-anchor="middle" x="271" y="-328" font-family="sans" font-size="10.00">make_prevalence_maps</text>
<text text-anchor="middle" x="271" y="-317" font-family="sans" font-size="10.00">FIRST_MDA: 2008</text>
<text text-anchor="middle" x="271" y="-306" font-family="sans" font-size="10.00">GROUP: 2</text>
<text text-anchor="middle" x="271" y="-295" font-family="sans" font-size="10.00">LAST_MDA: 2017</text>
</g>
<!-- 1&#45;&gt;13 -->
<g id="edge13" class="edge">
<title>1&#45;&gt;13</title>
<path fill="none" stroke="grey" stroke-width="2" d="M206.42,-375.69C215.34,-367.31 226.34,-356.97 236.72,-347.22"/>
<polygon fill="grey" stroke="grey" stroke-width="2" points="239.23,-349.66 244.12,-340.26 234.44,-344.55 239.23,-349.66"/>
</g>
<!-- 3 -->
<g id="node3" class="node">
<title>3</title>
<path fill="none" stroke="#d8cb56" stroke-width="2" d="M305,-36C305,-36 227,-36 227,-36 221,-36 215,-30 215,-24 215,-24 215,-12 215,-12 215,-6 221,0 227,0 227,0 305,0 305,0 311,0 317,-6 317,-12 317,-12 317,-24 317,-24 317,-30 311,-36 305,-36"/>
<text text-anchor="middle" x="266" y="-15.5" font-family="sans" font-size="10.00">forward_simulate</text>
</g>
<!-- 4 -->
<g id="node4" class="node">
<title>4</title>
<path fill="none" stroke="#d8cb56" stroke-width="2" d="M498,-36C498,-36 420,-36 420,-36 414,-36 408,-30 408,-24 408,-24 408,-12 408,-12 408,-6 414,0 420,0 420,0 498,0 498,0 504,0 510,-6 510,-12 510,-12 510,-24 510,-24 510,-30 504,-36 498,-36"/>
<text text-anchor="middle" x="459" y="-15.5" font-family="sans" font-size="10.00">forward_simulate</text>
</g>
<!-- 5 -->
<g id="node5" class="node">
<title>5</title>
<path fill="none" stroke="#5692d8" stroke-width="2" d="M161,-180C161,-180 39,-180 39,-180 33,-180 27,-174 27,-168 27,-168 27,-156 27,-156 27,-150 33,-144 39,-144 39,-144 161,-144 161,-144 167,-144 173,-150 173,-156 173,-156 173,-168 173,-168 173,-174 167,-180 161,-180"/>
<text text-anchor="middle" x="100" y="-165" font-family="sans" font-size="10.00">sample_parameter_values</text>
<text text-anchor="middle" x="100" y="-154" font-family="sans" font-size="10.00">IUCODE: ETH18604</text>
</g>
<!-- 5&#45;&gt;0 -->
<g id="edge1" class="edge">
<title>5&#45;&gt;0</title>
<path fill="none" stroke="grey" stroke-width="2" d="M76.25,-143.91C65.45,-134.65 53.8,-122.2 48,-108 39.98,-88.38 41.41,-64.25 44.47,-46.07"/>
<polygon fill="grey" stroke="grey" stroke-width="2" points="47.93,-46.61 46.4,-36.13 41.06,-45.28 47.93,-46.61"/>
</g>
<!-- 9 -->
<g id="node8" class="node">
<title>9</title>
<path fill="none" stroke="#afd856" stroke-width="2" d="M153,-108C153,-108 69,-108 69,-108 63,-108 57,-102 57,-96 57,-96 57,-84 57,-84 57,-78 63,-72 69,-72 69,-72 153,-72 153,-72 159,-72 165,-78 165,-84 165,-84 165,-96 165,-96 165,-102 159,-108 153,-108"/>
<text text-anchor="middle" x="111" y="-87.5" font-family="sans" font-size="10.00">resimulate_history</text>
</g>
<!-- 5&#45;&gt;9 -->
<g id="edge10" class="edge">
<title>5&#45;&gt;9</title>
<path fill="none" stroke="grey" stroke-width="2" d="M102.72,-143.7C103.93,-135.98 105.39,-126.71 106.74,-118.11"/>
<polygon fill="grey" stroke="grey" stroke-width="2" points="110.22,-118.53 108.31,-108.1 103.3,-117.44 110.22,-118.53"/>
</g>
<!-- 6 -->
<g id="node6" class="node">
<title>6</title>
<path fill="none" stroke="#70d856" stroke-width="2" d="M168,-252C168,-252 32,-252 32,-252 26,-252 20,-246 20,-240 20,-240 20,-228 20,-228 20,-222 26,-216 32,-216 32,-216 168,-216 168,-216 174,-216 180,-222 180,-228 180,-228 180,-240 180,-240 180,-246 174,-252 168,-252"/>
<text text-anchor="middle" x="100" y="-231.5" font-family="sans" font-size="10.00">estimate_parameter_weights</text>
</g>
<!-- 6&#45;&gt;5 -->
<g id="edge7" class="edge">
<title>6&#45;&gt;5</title>
<path fill="none" stroke="grey" stroke-width="2" d="M100,-215.7C100,-207.98 100,-198.71 100,-190.11"/>
<polygon fill="grey" stroke="grey" stroke-width="2" points="103.5,-190.1 100,-180.1 96.5,-190.1 103.5,-190.1"/>
</g>
<!-- 8&#45;&gt;6 -->
<g id="edge8" class="edge">
<title>8&#45;&gt;6</title>
<path fill="none" stroke="grey" stroke-width="2" d="M108.14,-287.89C106.88,-279.75 105.49,-270.68 104.21,-262.38"/>
<polygon fill="grey" stroke="grey" stroke-width="2" points="107.66,-261.76 102.68,-252.41 100.74,-262.83 107.66,-261.76"/>
</g>
<!-- 9&#45;&gt;0 -->
<g id="edge2" class="edge">
<title>9&#45;&gt;0</title>
<path fill="none" stroke="grey" stroke-width="2" d="M96.17,-71.7C88.98,-63.3 80.2,-53.07 72.31,-43.86"/>
<polygon fill="grey" stroke="grey" stroke-width="2" points="74.83,-41.42 65.66,-36.1 69.51,-45.97 74.83,-41.42"/>
</g>
<!-- 10 -->
<g id="node9" class="node">
<title>10</title>
<path fill="none" stroke="#5692d8" stroke-width="2" d="M325,-180C325,-180 203,-180 203,-180 197,-180 191,-174 191,-168 191,-168 191,-156 191,-156 191,-150 197,-144 203,-144 203,-144 325,-144 325,-144 331,-144 337,-150 337,-156 337,-156 337,-168 337,-168 337,-174 331,-180 325,-180"/>
<text text-anchor="middle" x="264" y="-165" font-family="sans" font-size="10.00">sample_parameter_values</text>
<text text-anchor="middle" x="264" y="-154" font-family="sans" font-size="10.00">IUCODE: ETH18644</text>
</g>
<!-- 10&#45;&gt;3 -->
<g id="edge3" class="edge">
<title>10&#45;&gt;3</title>
<path fill="none" stroke="grey" stroke-width="2" d="M259.54,-143.95C257.06,-133.63 254.25,-120.15 253,-108 251.37,-92.08 251.08,-87.88 253,-72 254.02,-63.53 255.93,-54.47 257.98,-46.28"/>
<polygon fill="grey" stroke="grey" stroke-width="2" points="261.4,-47.03 260.59,-36.47 254.64,-45.23 261.4,-47.03"/>
</g>
<!-- 14 -->
<g id="node12" class="node">
<title>14</title>
<path fill="none" stroke="#afd856" stroke-width="2" d="M358,-108C358,-108 274,-108 274,-108 268,-108 262,-102 262,-96 262,-96 262,-84 262,-84 262,-78 268,-72 274,-72 274,-72 358,-72 358,-72 364,-72 370,-78 370,-84 370,-84 370,-96 370,-96 370,-102 364,-108 358,-108"/>
<text text-anchor="middle" x="316" y="-87.5" font-family="sans" font-size="10.00">resimulate_history</text>
</g>
<!-- 10&#45;&gt;14 -->
<g id="edge14" class="edge">
<title>10&#45;&gt;14</title>
<path fill="none" stroke="grey" stroke-width="2" d="M276.85,-143.7C283.03,-135.39 290.54,-125.28 297.32,-116.14"/>
<polygon fill="grey" stroke="grey" stroke-width="2" points="300.14,-118.22 303.29,-108.1 294.52,-114.04 300.14,-118.22"/>
</g>
<!-- 11 -->
<g id="node10" class="node">
<title>11</title>
<path fill="none" stroke="#70d856" stroke-width="2" d="M346,-252C346,-252 210,-252 210,-252 204,-252 198,-246 198,-240 198,-240 198,-228 198,-228 198,-222 204,-216 210,-216 210,-216 346,-216 346,-216 352,-216 358,-222 358,-228 358,-228 358,-240 358,-240 358,-246 352,-252 346,-252"/>
<text text-anchor="middle" x="278" y="-231.5" font-family="sans" font-size="10.00">estimate_parameter_weights</text>
</g>
<!-- 11&#45;&gt;10 -->
<g id="edge11" class="edge">
<title>11&#45;&gt;10</title>
<path fill="none" stroke="grey" stroke-width="2" d="M274.54,-215.7C273,-207.98 271.14,-198.71 269.42,-190.11"/>
<polygon fill="grey" stroke="grey" stroke-width="2" points="272.81,-189.22 267.42,-180.1 265.95,-190.6 272.81,-189.22"/>
</g>
<!-- 15 -->
<g id="node13" class="node">
<title>15</title>
<path fill="none" stroke="#5692d8" stroke-width="2" d="M489,-180C489,-180 367,-180 367,-180 361,-180 355,-174 355,-168 355,-168 355,-156 355,-156 355,-150 361,-144 367,-144 367,-144 489,-144 489,-144 495,-144 501,-150 501,-156 501,-156 501,-168 501,-168 501,-174 495,-180 489,-180"/>
<text text-anchor="middle" x="428" y="-165" font-family="sans" font-size="10.00">sample_parameter_values</text>
<text text-anchor="middle" x="428" y="-154" font-family="sans" font-size="10.00">IUCODE: ETH18551</text>
</g>
<!-- 11&#45;&gt;15 -->
<g id="edge15" class="edge">
<title>11&#45;&gt;15</title>
<path fill="none" stroke="grey" stroke-width="2" d="M314.69,-215.88C335.02,-206.39 360.47,-194.51 382.1,-184.42"/>
<polygon fill="grey" stroke="grey" stroke-width="2" points="383.84,-187.47 391.43,-180.07 380.88,-181.13 383.84,-187.47"/>
</g>
<!-- 13&#45;&gt;11 -->
<g id="edge12" class="edge">
<title>13&#45;&gt;11</title>
<path fill="none" stroke="grey" stroke-width="2" d="M273.25,-287.89C273.98,-279.75 274.8,-270.68 275.54,-262.38"/>
<polygon fill="grey" stroke="grey" stroke-width="2" points="279.03,-262.68 276.44,-252.41 272.06,-262.06 279.03,-262.68"/>
</g>
<!-- 14&#45;&gt;3 -->
<g id="edge4" class="edge">
<title>14&#45;&gt;3</title>
<path fill="none" stroke="grey" stroke-width="2" d="M303.64,-71.7C297.77,-63.47 290.63,-53.48 284.16,-44.42"/>
<polygon fill="grey" stroke="grey" stroke-width="2" points="286.88,-42.21 278.22,-36.1 281.18,-46.28 286.88,-42.21"/>
</g>
<!-- 15&#45;&gt;4 -->
<g id="edge5" class="edge">
<title>15&#45;&gt;4</title>
<path fill="none" stroke="grey" stroke-width="2" d="M428.26,-143.68C428.88,-125.56 430.85,-96.39 437,-72 439.24,-63.11 442.71,-53.77 446.24,-45.44"/>
<polygon fill="grey" stroke="grey" stroke-width="2" points="449.48,-46.79 450.34,-36.23 443.08,-43.94 449.48,-46.79"/>
</g>
<!-- 16 -->
<g id="node14" class="node">
<title>16</title>
<path fill="none" stroke="#afd856" stroke-width="2" d="M542,-108C542,-108 458,-108 458,-108 452,-108 446,-102 446,-96 446,-96 446,-84 446,-84 446,-78 452,-72 458,-72 458,-72 542,-72 542,-72 548,-72 554,-78 554,-84 554,-84 554,-96 554,-96 554,-102 548,-108 542,-108"/>
<text text-anchor="middle" x="500" y="-87.5" font-family="sans" font-size="10.00">resimulate_history</text>
</g>
<!-- 15&#45;&gt;16 -->
<g id="edge16" class="edge">
<title>15&#45;&gt;16</title>
<path fill="none" stroke="grey" stroke-width="2" d="M445.8,-143.7C454.6,-135.14 465.38,-124.66 475,-115.3"/>
<polygon fill="grey" stroke="grey" stroke-width="2" points="477.68,-117.58 482.41,-108.1 472.8,-112.57 477.68,-117.58"/>
</g>
<!-- 16&#45;&gt;4 -->
<g id="edge6" class="edge">
<title>16&#45;&gt;4</title>
<path fill="none" stroke="grey" stroke-width="2" d="M489.87,-71.7C485.15,-63.64 479.44,-53.89 474.22,-44.98"/>
<polygon fill="grey" stroke="grey" stroke-width="2" points="477.09,-42.96 469.02,-36.1 471.05,-46.5 477.09,-42.96"/>
</g>
</g>
</svg>
