<?xml version="1.0" encoding="UTF-8" standalone="no"?>
<!DOCTYPE svg PUBLIC "-//W3C//DTD SVG 1.1//EN"
 "http://www.w3.org/Graphics/SVG/1.1/DTD/svg11.dtd">
<!-- Generated by graphviz version 2.43.0 (0)
 -->
<!-- Title: snakemake_dag Pages: 1 -->
<svg width="203pt" height="260pt"
 viewBox="0.00 0.00 203.00 260.00" xmlns="http://www.w3.org/2000/svg" xmlns:xlink="http://www.w3.org/1999/xlink">
<g id="graph0" class="graph" transform="scale(1 1) rotate(0) translate(4 256)">
<title>snakemake_dag</title>
<polygon fill="white" stroke="transparent" points="-4,4 -4,-256 199,-256 199,4 -4,4"/>
<!-- 0 -->
<g id="node1" class="node">
<title>0</title>
<path fill="none" stroke="#569ad8" stroke-width="2" d="M136.5,-36C136.5,-36 58.5,-36 58.5,-36 52.5,-36 46.5,-30 46.5,-24 46.5,-24 46.5,-12 46.5,-12 46.5,-6 52.5,0 58.5,0 58.5,0 136.5,0 136.5,0 142.5,0 148.5,-6 148.5,-12 148.5,-12 148.5,-24 148.5,-24 148.5,-30 142.5,-36 136.5,-36"/>
<text text-anchor="middle" x="97.5" y="-15.5" font-family="sans" font-size="10.00">forward_simulate</text>
</g>
<!-- 1 -->
<g id="node2" class="node">
<title>1</title>
<path fill="none" stroke="#56d8d8" stroke-width="2" d="M158.5,-108C158.5,-108 36.5,-108 36.5,-108 30.5,-108 24.5,-102 24.5,-96 24.5,-96 24.5,-84 24.5,-84 24.5,-78 30.5,-72 36.5,-72 36.5,-72 158.5,-72 158.5,-72 164.5,-72 170.5,-78 170.5,-84 170.5,-84 170.5,-96 170.5,-96 170.5,-102 164.5,-108 158.5,-108"/>
<text text-anchor="middle" x="97.5" y="-87.5" font-family="sans" font-size="10.00">sample_parameter_values</text>
</g>
<!-- 1&#45;&gt;0 -->
<g id="edge1" class="edge">
<title>1&#45;&gt;0</title>
<path fill="none" stroke="grey" stroke-width="2" d="M97.5,-71.7C97.5,-63.98 97.5,-54.71 97.5,-46.11"/>
<polygon fill="grey" stroke="grey" stroke-width="2" points="101,-46.1 97.5,-36.1 94,-46.1 101,-46.1"/>
</g>
<!-- 2 -->
<g id="node3" class="node">
<title>2</title>
<path fill="none" stroke="#d89556" stroke-width="2" d="M183,-180C183,-180 12,-180 12,-180 6,-180 0,-174 0,-168 0,-168 0,-156 0,-156 0,-150 6,-144 12,-144 12,-144 183,-144 183,-144 189,-144 195,-150 195,-156 195,-156 195,-168 195,-168 195,-174 189,-180 183,-180"/>
<text text-anchor="middle" x="97.5" y="-159.5" font-family="sans" font-size="10.00">estimate_parameter_weights (AMIS)</text>
</g>
<!-- 2&#45;&gt;1 -->
<g id="edge2" class="edge">
<title>2&#45;&gt;1</title>
<path fill="none" stroke="grey" stroke-width="2" d="M97.5,-143.7C97.5,-135.98 97.5,-126.71 97.5,-118.11"/>
<polygon fill="grey" stroke="grey" stroke-width="2" points="101,-118.1 97.5,-108.1 94,-118.1 101,-118.1"/>
</g>
<!-- 4 -->
<g id="node4" class="node">
<title>4</title>
<path fill="none" stroke="#56d89a" stroke-width="2" d="M153,-252C153,-252 42,-252 42,-252 36,-252 30,-246 30,-240 30,-240 30,-228 30,-228 30,-222 36,-216 42,-216 42,-216 153,-216 153,-216 159,-216 165,-222 165,-228 165,-228 165,-240 165,-240 165,-246 159,-252 153,-252"/>
<text text-anchor="middle" x="97.5" y="-231.5" font-family="sans" font-size="10.00">make_prevalence_maps</text>
</g>
<!-- 4&#45;&gt;2 -->
<g id="edge3" class="edge">
<title>4&#45;&gt;2</title>
<path fill="none" stroke="grey" stroke-width="2" d="M97.5,-215.7C97.5,-207.98 97.5,-198.71 97.5,-190.11"/>
<polygon fill="grey" stroke="grey" stroke-width="2" points="101,-190.1 97.5,-180.1 94,-190.1 101,-190.1"/>
</g>
</g>
</svg>
