<?xml version="1.0" encoding="UTF-8" standalone="no"?>
<!DOCTYPE svg PUBLIC "-//W3C//DTD SVG 1.1//EN"
 "http://www.w3.org/Graphics/SVG/1.1/DTD/svg11.dtd">
<!-- Generated by graphviz version 2.43.0 (0)
 -->
<!-- Title: snakemake_dag Pages: 1 -->
<svg width="231pt" height="332pt"
 viewBox="0.00 0.00 230.50 332.00" xmlns="http://www.w3.org/2000/svg" xmlns:xlink="http://www.w3.org/1999/xlink">
<g id="graph0" class="graph" transform="scale(1 1) rotate(0) translate(4 328)">
<title>snakemake_dag</title>
<polygon fill="white" stroke="transparent" points="-4,4 -4,-328 226.5,-328 226.5,4 -4,4"/>
<!-- 0 -->
<g id="node1" class="node">
<title>0</title>
<path fill="none" stroke="#70d856" stroke-width="2" d="M136.5,-36C136.5,-36 58.5,-36 58.5,-36 52.5,-36 46.5,-30 46.5,-24 46.5,-24 46.5,-12 46.5,-12 46.5,-6 52.5,0 58.5,0 58.5,0 136.5,0 136.5,0 142.5,0 148.5,-6 148.5,-12 148.5,-12 148.5,-24 148.5,-24 148.5,-30 142.5,-36 136.5,-36"/>
<text text-anchor="middle" x="97.5" y="-21" font-family="sans" font-size="10.00">forward_simulate</text>
<text text-anchor="middle" x="97.5" y="-10" font-family="sans" font-size="10.00">(from END_YEAR)</text>
</g>
<!-- 3 -->
<g id="node2" class="node">
<title>3</title>
<path fill="none" stroke="#5692d8" stroke-width="2" d="M158.5,-180C158.5,-180 36.5,-180 36.5,-180 30.5,-180 24.5,-174 24.5,-168 24.5,-168 24.5,-156 24.5,-156 24.5,-150 30.5,-144 36.5,-144 36.5,-144 158.5,-144 158.5,-144 164.5,-144 170.5,-150 170.5,-156 170.5,-156 170.5,-168 170.5,-168 170.5,-174 164.5,-180 158.5,-180"/>
<text text-anchor="middle" x="97.5" y="-159.5" font-family="sans" font-size="10.00">sample_parameter_values</text>
</g>
<!-- 3&#45;&gt;0 -->
<g id="edge1" class="edge">
<title>3&#45;&gt;0</title>
<path fill="none" stroke="grey" stroke-width="2" d="M83.94,-143.97C76.94,-134.09 69.13,-121.05 65.5,-108 61.21,-92.59 61.21,-87.41 65.5,-72 68.17,-62.42 73.09,-52.84 78.28,-44.51"/>
<polygon fill="grey" stroke="grey" stroke-width="2" points="81.3,-46.29 83.94,-36.03 75.48,-42.41 81.3,-46.29"/>
</g>
<!-- 7 -->
<g id="node5" class="node">
<title>7</title>
<path fill="none" stroke="#d85656" stroke-width="2" d="M210.5,-108C210.5,-108 86.5,-108 86.5,-108 80.5,-108 74.5,-102 74.5,-96 74.5,-96 74.5,-84 74.5,-84 74.5,-78 80.5,-72 86.5,-72 86.5,-72 210.5,-72 210.5,-72 216.5,-72 222.5,-78 222.5,-84 222.5,-84 222.5,-96 222.5,-96 222.5,-102 216.5,-108 210.5,-108"/>
<text text-anchor="middle" x="148.5" y="-93" font-family="sans" font-size="10.00">resimulate_history</text>
<text text-anchor="middle" x="148.5" y="-82" font-family="sans" font-size="10.00">(save states at END_YEAR)</text>
</g>
<!-- 3&#45;&gt;7 -->
<g id="edge5" class="edge">
<title>3&#45;&gt;7</title>
<path fill="none" stroke="grey" stroke-width="2" d="M110.11,-143.7C116.1,-135.47 123.38,-125.48 129.98,-116.42"/>
<polygon fill="grey" stroke="grey" stroke-width="2" points="132.98,-118.25 136.04,-108.1 127.32,-114.13 132.98,-118.25"/>
</g>
<!-- 4 -->
<g id="node3" class="node">
<title>4</title>
<path fill="none" stroke="#d8cb56" stroke-width="2" d="M183,-252C183,-252 12,-252 12,-252 6,-252 0,-246 0,-240 0,-240 0,-228 0,-228 0,-222 6,-216 12,-216 12,-216 183,-216 183,-216 189,-216 195,-222 195,-228 195,-228 195,-240 195,-240 195,-246 189,-252 183,-252"/>
<text text-anchor="middle" x="97.5" y="-231.5" font-family="sans" font-size="10.00">estimate_parameter_weights (AMIS)</text>
</g>
<!-- 4&#45;&gt;3 -->
<g id="edge3" class="edge">
<title>4&#45;&gt;3</title>
<path fill="none" stroke="grey" stroke-width="2" d="M97.5,-215.7C97.5,-207.98 97.5,-198.71 97.5,-190.11"/>
<polygon fill="grey" stroke="grey" stroke-width="2" points="101,-190.1 97.5,-180.1 94,-190.1 101,-190.1"/>
</g>
<!-- 6 -->
<g id="node4" class="node">
<title>6</title>
<path fill="none" stroke="#56c9d8" stroke-width="2" d="M153,-324C153,-324 42,-324 42,-324 36,-324 30,-318 30,-312 30,-312 30,-300 30,-300 30,-294 36,-288 42,-288 42,-288 153,-288 153,-288 159,-288 165,-294 165,-300 165,-300 165,-312 165,-312 165,-318 159,-324 153,-324"/>
<text text-anchor="middle" x="97.5" y="-303.5" font-family="sans" font-size="10.00">make_prevalence_maps</text>
</g>
<!-- 6&#45;&gt;4 -->
<g id="edge4" class="edge">
<title>6&#45;&gt;4</title>
<path fill="none" stroke="grey" stroke-width="2" d="M97.5,-287.7C97.5,-279.98 97.5,-270.71 97.5,-262.11"/>
<polygon fill="grey" stroke="grey" stroke-width="2" points="101,-262.1 97.5,-252.1 94,-262.1 101,-262.1"/>
</g>
<!-- 7&#45;&gt;0 -->
<g id="edge2" class="edge">
<title>7&#45;&gt;0</title>
<path fill="none" stroke="grey" stroke-width="2" d="M135.89,-71.7C129.9,-63.47 122.62,-53.48 116.02,-44.42"/>
<polygon fill="grey" stroke="grey" stroke-width="2" points="118.68,-42.13 109.96,-36.1 113.02,-46.25 118.68,-42.13"/>
</g>
</g>
</svg>
